<svg xmlns="http://www.w3.org/2000/svg" width="333.84" height="258.96">
  <path fill-rule="evenodd" clip-rule="evenodd" fill="#ED1872" d="M333.36 4.8h.48c-4.186 5.204-11.617 8.983-17.04 12.96-13.511 9.908-27.136 19.626-41.28 29.04-54.721 36.42-112.929 66.547-181.2 90-21.228 7.292-43.365 11.471-67.68 16.32-4.13.824-22.602 3.975-26.64 2.4 12.233-1.481 24.56-5.643 35.52-9.12 24.506-7.774 46.93-15.145 69.36-24.72 15.469-6.604 30.448-12.794 45.6-19.44l36.24-17.52 25.92-12.96c11.326-6.64 23.667-11.397 34.56-18.24l18.48-9.6 43.68-24.96 24-14.16zM333.6 52.8c-.55 2.354-13.348 10.599-16.32 12.72-14.792 10.556-29.239 21.599-44.88 31.44-16.247 10.223-32.642 20.804-49.44 30.72-43.288 25.552-90.547 45.371-143.28 61.44-17.97 5.476-36.609 8.591-57.12 12.24-4.021.715-17.643 3.277-21.6 1.68h.48l24.96-6c17.381-5.257 34.61-10.037 50.64-16.32 30.742-12.05 60.8-25.461 90.24-38.4l47.52-23.76c9.78-3.886 20.45-9.901 29.76-15.36 9.372-5.495 19.537-9.619 28.32-15.6l12.48-6.48 34.08-19.92 14.16-8.4zM333.36 105.6l.48.24-22.56 16.8c-14.25 10.17-28.381 20.518-43.44 30-52.551 33.092-105.202 61.556-169.68 83.52-21.813 7.43-44.457 12.234-69.6 17.04-4.411.843-23.117 4.15-27.6 2.4 9.075-.652 18.567-4.021 26.64-6.48 21.889-6.669 42.597-13.094 62.64-21.12 24.882-9.964 48.78-20.665 72.24-31.2 13.588-6.102 28.718-12.513 41.76-20.16 14.316-8.395 29.82-14.532 43.92-22.8 19.888-11.662 40.469-21.73 60-33.36l25.2-14.88z"/>
</svg>